<?xml version="1.0" encoding="utf-8"?>
<!-- Generator: Adobe Illustrator 24.3.0, SVG Export Plug-In . SVG Version: 6.00 Build 0)  -->
<svg version="1.1" id="Ebene_1" xmlns="http://www.w3.org/2000/svg" xmlns:xlink="http://www.w3.org/1999/xlink" x="0px" y="0px"
	 viewBox="0 0 737 91.4" style="enable-background:new 0 0 737 91.4;" xml:space="preserve">
<style type="text/css">
	.st0{fill:#F9AE00;}
	.st1{fill:#333333;}
	.st2{fill:#ffffff;}
</style>
<g>
	<path class="st0" d="M285.7,14.2c6.1,0,11.2,4.1,12.5,10c0.1,0.3,0.3,0.5,0.6,0.5h12.3h0c0.4,0,0.6-0.3,0.6-0.6
		c0-5.3-5.9-23.3-26.2-23.3c-20.2,0-26.2,18.1-26.2,23.3c0,0.4,0.3,0.6,0.6,0.6h0h12.3c0.3,0,0.6-0.2,0.6-0.5
		C274.5,18.3,279.7,14.2,285.7,14.2z"/>
	<path class="st0" d="M285.7,39.8c6.1,0,11.2-4.1,12.5-10c0.1-0.3,0.3-0.5,0.6-0.5h12.3h0c0.4,0,0.6,0.3,0.6,0.6
		c0,5.3-5.9,23.3-26.2,23.3c-20.2,0-26.2-18.1-26.2-23.3c0-0.4,0.3-0.6,0.6-0.6h0h12.3c0.3,0,0.6,0.2,0.6,0.5
		C274.5,35.6,279.7,39.8,285.7,39.8z"/>
	<path class="st0" d="M165.3,51.6c0,0.4-0.3,0.6-0.6,0.6H152c-0.3,0-0.6-0.3-0.6-0.6V19.1c0-0.3,0.3-0.6,0.6-0.6h12.7
		c0.3,0,0.6,0.3,0.6,0.6V51.6z"/>
	<path class="st0" d="M136.2,14c-0.4,0-0.6-0.3-0.6-0.6v-11c0-0.4,0.3-0.6,0.6-0.6h44.1c0.3,0,0.6,0.3,0.6,0.6v11
		c0,0.3-0.3,0.6-0.6,0.6L136.2,14L136.2,14z"/>
	<path class="st0" d="M95.6,32.5c-0.4,0-0.6-0.3-0.6-0.6v-9.8c0-0.3,0.3-0.6,0.6-0.6h18.5c0.3,0,0.6,0.3,0.6,0.6v9.8
		c0,0.3-0.3,0.6-0.6,0.6H95.6z"/>
	<path class="st0" d="M117.1,40H90.6V14h26.1c0.4,0,0.6-0.3,0.6-0.6v-11c0-0.4-0.3-0.6-0.6-0.6H77.3c-0.4,0-0.6,0.3-0.6,0.6v49.3
		c0,0.4,0.3,0.6,0.6,0.6h39.8c0.4,0,0.6-0.3,0.6-0.6v-11C117.7,40.3,117.4,40,117.1,40z"/>
	<path class="st0" d="M54.8,1.9c0-0.2-0.1-0.4-0.3-0.6c-0.2-0.1-0.5-0.1-0.7,0L27.9,17L2,1.3c-0.2-0.1-0.4-0.1-0.7,0S1,1.6,1,1.9
		v49.8c0,0.4,0.3,0.6,0.6,0.6h12.7c0.4,0,0.6-0.3,0.6-0.6V24.3l12.3,7.4c0.1,0.1,0.4,0.2,0.6,0.2s0.5-0.2,0.6-0.2
		c0,0,25.7-15.4,25.9-15.5c0.3-0.2,0.3-0.3,0.3-0.8C54.8,15.2,54.8,1.9,54.8,1.9z"/>
	<path class="st0" d="M54.4,21.7c-0.2-0.1-0.4-0.1-0.7,0l-12.5,7.4c-0.3,0.2-0.4,0.4-0.4,0.9v21.6c0,0.4,0.3,0.6,0.6,0.6h12.7
		c0.4,0,0.6-0.3,0.6-0.6V22.3C54.8,22.1,54.6,21.9,54.4,21.7"/>
	<path class="st0" d="M211.2,1.7h-12.6c-0.4,0-0.6,0.3-0.6,0.7v49.2c0,0.4,0.3,0.6,0.6,0.6h12.6c0.4,0,0.6-0.3,0.6-0.6V2.4
		C211.9,2,211.6,1.7,211.2,1.7"/>
	<path class="st0" d="M211.9,51.6c0,0.4-0.3,0.6-0.6,0.6h-12.7c-0.3,0-0.6-0.3-0.6-0.6V2.3c0-0.4,0.3-0.6,0.6-0.6h12.7
		c0.3,0,0.6,0.3,0.6,0.6V51.6z"/>
	<path class="st0" d="M230.8,34.8c0,0,11.9-3.4,11.9-16c0-17.1-16.4-17.1-23.2-17.1H217c-0.4,0-0.6,0.3-0.6,0.6v11
		c0,0.3,0.3,0.6,0.6,0.6h4.1c1.9,0,7.6,0.3,7.6,6.1s-5.9,6.1-7.5,6.1H217c-0.4,0-0.6,0.3-0.6,0.6v9.6c0,0.6,0.2,0.9,0.3,1l9.8,14.6
		c0.1,0.2,0.3,0.3,0.5,0.3h14.6c0.2,0,0.5-0.1,0.6-0.4c0.1-0.2,0.1-0.5,0-0.7L230.8,34.8"/>
</g>
<g>
	<path class="st2" d="M329.9,52V1.5H341v40.4h25.2V52H329.9z"/>
	<path class="st2" d="M398.9,52.8c-15.6,0-26.7-11.6-26.7-25.9v-0.1c0-14.3,11.3-26.1,26.9-26.1c15.6,0,26.7,11.6,26.7,25.9v0.1
		C425.8,41.1,414.5,52.8,398.9,52.8z M414.2,26.7c0-8.7-6.3-15.9-15.3-15.9s-15.1,7.1-15.1,15.7v0.1c0,8.7,6.3,15.9,15.3,15.9
		s15.1-7.1,15.1-15.7V26.7z"/>
	<path class="st2" d="M461,52.8c-15.7,0-26.5-11-26.5-25.9v-0.1c0-14.3,11.2-26.1,26.4-26.1c9.1,0,14.6,2.4,19.8,6.9l-7,8.4
		c-3.9-3.2-7.3-5.1-13.2-5.1c-8.1,0-14.5,7.1-14.5,15.7v0.1c0,9.2,6.3,16,15.3,16c4,0,7.6-1,10.5-3v-7.2h-11.2v-9.6h21.9v21.9
		C477.3,49.2,470.2,52.8,461,52.8z"/>
	<path class="st2" d="M495.8,52V1.5h11.1V52H495.8z"/>
	<path class="st2" d="M540.6,52.7c-7.6,0-15.4-2.7-21.4-8.1l6.6-7.9c4.5,3.8,9.3,6.1,15.1,6.1c4.5,0,7.3-1.8,7.3-4.8V38
		c0-2.8-1.7-4.3-10.2-6.4c-10.2-2.6-16.7-5.4-16.7-15.4V16c0-9.2,7.3-15.2,17.7-15.2c7.3,0,13.6,2.3,18.7,6.4l-5.8,8.4
		c-4.5-3.1-8.9-5-13.1-5s-6.5,1.9-6.5,4.4v0.1c0,3.3,2.2,4.4,10.9,6.6c10.2,2.7,16,6.3,16,15.1V37C559.1,47.1,551.5,52.7,540.6,52.7
		z"/>
	<path class="st2" d="M592.5,11.7v40.2h-11.1V11.7h-15.4V1.5h41.8v10.2H592.5z"/>
	<path class="st2" d="M618.9,52V1.5H630V52H618.9z"/>
	<path class="st2" d="M667.3,52.8c-14.8,0-25.9-11.5-25.9-25.9v-0.1c0-14.3,10.8-26.1,26.3-26.1c9.5,0,15.2,3.2,19.9,7.8l-7.1,8.1
		c-3.9-3.5-7.9-5.7-12.9-5.7c-8.5,0-14.6,7.1-14.6,15.7v0.1c0,8.7,6,15.9,14.6,15.9c5.8,0,9.3-2.3,13.3-5.9l7.1,7.1
		C682.8,49.4,677,52.8,667.3,52.8z"/>
	<path class="st2" d="M716.9,52.7c-7.6,0-15.4-2.7-21.4-8.1l6.6-7.9c4.5,3.8,9.3,6.1,15.1,6.1c4.5,0,7.3-1.8,7.3-4.8V38
		c0-2.8-1.7-4.3-10.2-6.4c-10.2-2.6-16.7-5.4-16.7-15.4V16c0-9.2,7.3-15.2,17.7-15.2c7.3,0,13.6,2.3,18.7,6.4l-5.8,8.4
		c-4.5-3.1-8.9-5-13.1-5c-4.3,0-6.5,1.9-6.5,4.4v0.1c0,3.3,2.2,4.4,10.9,6.6c10.2,2.7,16,6.3,16,15.1V37
		C735.4,47.1,727.8,52.7,716.9,52.7z"/>
</g>
<polygon class="st0" points="329.9,63.4 329.9,90.3 720.9,90.3 735.6,63.4 "/>
<g>
	<path class="st1" d="M334.4,77.5L334.4,77.5c0-4.7,3.7-8.5,8.7-8.5c5,0,8.7,3.8,8.7,8.4v0c0,4.6-3.7,8.5-8.7,8.5
		C338,86,334.4,82.2,334.4,77.5z M348,77.5L348,77.5c0-2.9-2.1-5.2-5-5.2c-2.9,0-4.9,2.3-4.9,5.1v0c0,2.8,2.1,5.1,5,5.1
		C346,82.6,348,80.3,348,77.5z"/>
	<path class="st1" d="M353.8,78.7v-9.3h3.6v9.3c0,2.7,1.3,4,3.5,4c2.2,0,3.5-1.3,3.5-3.9v-9.4h3.6v9.2c0,5-2.8,7.4-7.2,7.4
		C356.5,85.9,353.8,83.5,353.8,78.7z"/>
	<path class="st1" d="M370.8,69.3h7.5c2.1,0,3.7,0.6,4.8,1.7c0.9,0.9,1.4,2.2,1.4,3.7v0c0,2.6-1.4,4.3-3.5,5.1l4,5.8h-4.2l-3.5-5.2
		h-2.8v5.2h-3.6L370.8,69.3L370.8,69.3z M378,77.3c1.8,0,2.8-0.9,2.8-2.3v0c0-1.5-1.1-2.3-2.8-2.3h-3.6v4.7H378z"/>
	<path class="st1" d="M394.3,69.3h3.3l7.7,10.1V69.3h3.6v16.3h-3.1l-7.9-10.4v10.4h-3.6L394.3,69.3L394.3,69.3z"/>
	<path class="st1" d="M412,69.3h12.3v3.2h-8.8v3.3h7.7V79h-7.7v3.4h8.9v3.2H412L412,69.3L412,69.3z"/>
	<path class="st1" d="M431.3,72.6h-5v-3.3h13.6v3.3h-5v13h-3.6L431.3,72.6L431.3,72.6z"/>
	<path class="st1" d="M441.1,69.3h3.9l3.4,11.1l3.7-11.1h3.1l3.7,11.1l3.4-11.1h3.8l-5.6,16.5h-3.1l-3.7-10.7l-3.7,10.7h-3.1
		L441.1,69.3z"/>
	<path class="st1" d="M466.7,77.5L466.7,77.5c0-4.7,3.7-8.5,8.7-8.5c5,0,8.7,3.8,8.7,8.4v0c0,4.6-3.7,8.5-8.7,8.5
		C470.3,86,466.7,82.2,466.7,77.5z M480.3,77.5L480.3,77.5c0-2.9-2.1-5.2-5-5.2c-2.9,0-4.9,2.3-4.9,5.1v0c0,2.8,2.1,5.1,5,5.1
		C478.3,82.6,480.3,80.3,480.3,77.5z"/>
	<path class="st1" d="M487.1,69.3h7.5c2.1,0,3.7,0.6,4.8,1.7c0.9,0.9,1.4,2.2,1.4,3.7v0c0,2.6-1.4,4.3-3.5,5.1l4,5.8H497l-3.5-5.2
		h-2.8v5.2h-3.6L487.1,69.3L487.1,69.3z M494.3,77.3c1.8,0,2.8-0.9,2.8-2.3v0c0-1.5-1.1-2.3-2.8-2.3h-3.6v4.7H494.3z"/>
	<path class="st1" d="M503.8,69.3h3.6v7.1l6.6-7.1h4.3l-6.7,6.9l7,9.4h-4.3l-5.1-7l-1.9,2v5h-3.6L503.8,69.3L503.8,69.3z"/>
	<path class="st1" d="M520.1,81.9h3.8v3.7h-3.8V81.9z"/>
	<path class="st1" d="M535.8,79.2l-6.3-9.9h4.2l3.9,6.6l4-6.6h4.1l-6.3,9.8v6.5h-3.6L535.8,79.2L535.8,79.2z"/>
	<path class="st1" d="M545.6,77.5L545.6,77.5c0-4.7,3.7-8.5,8.7-8.5c5,0,8.7,3.8,8.7,8.4v0c0,4.6-3.7,8.5-8.7,8.5
		C549.2,86,545.6,82.2,545.6,77.5z M559.3,77.5L559.3,77.5c0-2.9-2.1-5.2-5-5.2c-2.9,0-4.9,2.3-4.9,5.1v0c0,2.8,2.1,5.1,5,5.1
		C557.2,82.6,559.3,80.3,559.3,77.5z"/>
	<path class="st1" d="M565.8,78.7v-9.3h3.6v9.3c0,2.7,1.3,4,3.5,4s3.5-1.3,3.5-3.9v-9.4h3.6v9.2c0,5-2.8,7.4-7.2,7.4
		S565.8,83.5,565.8,78.7z"/>
	<path class="st1" d="M583,69.3h7.5c2.1,0,3.7,0.6,4.8,1.7c0.9,0.9,1.4,2.2,1.4,3.7v0c0,2.6-1.4,4.3-3.5,5.1l4,5.8h-4.2l-3.5-5.2
		h-2.8v5.2H583L583,69.3L583,69.3z M590.2,77.3c1.8,0,2.8-0.9,2.8-2.3v0c0-1.5-1.1-2.3-2.8-2.3h-3.6v4.7H590.2z"/>
	<path class="st1" d="M605.3,83.3l2.1-2.5c1.5,1.2,3,2,4.9,2c1.5,0,2.4-0.6,2.4-1.5v0c0-0.9-0.6-1.4-3.3-2.1c-3.3-0.8-5.4-1.8-5.4-5
		v0c0-3,2.4-4.9,5.7-4.9c2.4,0,4.4,0.7,6.1,2.1l-1.9,2.7c-1.4-1-2.9-1.6-4.3-1.6c-1.4,0-2.1,0.6-2.1,1.4v0c0,1.1,0.7,1.4,3.5,2.1
		c3.3,0.9,5.2,2.1,5.2,4.9v0c0,3.2-2.5,5.1-6,5.1C609.8,85.9,607.3,85,605.3,83.3z"/>
	<path class="st1" d="M620.7,78.7v-9.3h3.6v9.3c0,2.7,1.3,4,3.5,4c2.2,0,3.5-1.3,3.5-3.9v-9.4h3.6v9.2c0,5-2.8,7.4-7.2,7.4
		S620.7,83.5,620.7,78.7z"/>
	<path class="st1" d="M637.7,77.5L637.7,77.5c0-4.7,3.5-8.5,8.5-8.5c3.1,0,4.9,1,6.4,2.5l-2.3,2.6c-1.3-1.1-2.5-1.8-4.2-1.8
		c-2.8,0-4.7,2.3-4.7,5.1v0c0,2.8,1.9,5.1,4.7,5.1c1.9,0,3-0.7,4.3-1.9l2.3,2.3c-1.7,1.8-3.6,2.9-6.7,2.9
		C641.2,86,637.7,82.2,637.7,77.5z"/>
	<path class="st1" d="M654.2,77.5L654.2,77.5c0-4.7,3.5-8.5,8.5-8.5c3.1,0,4.9,1,6.4,2.5l-2.3,2.6c-1.3-1.1-2.5-1.8-4.2-1.8
		c-2.8,0-4.7,2.3-4.7,5.1v0c0,2.8,1.9,5.1,4.7,5.1c1.9,0,3-0.7,4.3-1.9l2.3,2.3c-1.7,1.8-3.6,2.9-6.7,2.9
		C657.8,86,654.2,82.2,654.2,77.5z"/>
	<path class="st1" d="M672,69.3h12.3v3.2h-8.8v3.3h7.7V79h-7.7v3.4h8.9v3.2H672V69.3z"/>
	<path class="st1" d="M686.3,83.3l2.1-2.5c1.5,1.2,3,2,4.9,2c1.5,0,2.4-0.6,2.4-1.5v0c0-0.9-0.6-1.4-3.3-2.1c-3.3-0.8-5.4-1.8-5.4-5
		v0c0-3,2.4-4.9,5.7-4.9c2.4,0,4.4,0.7,6.1,2.1l-1.9,2.7c-1.4-1-2.9-1.6-4.3-1.6c-1.4,0-2.1,0.6-2.1,1.4v0c0,1.1,0.7,1.4,3.5,2.1
		c3.3,0.9,5.2,2.1,5.2,4.9v0c0,3.2-2.5,5.1-6,5.1C690.7,85.9,688.2,85,686.3,83.3z"/>
	<path class="st1" d="M700.8,83.3l2.1-2.5c1.5,1.2,3,2,4.9,2c1.5,0,2.4-0.6,2.4-1.5v0c0-0.9-0.6-1.4-3.3-2.1c-3.3-0.8-5.4-1.8-5.4-5
		v0c0-3,2.4-4.9,5.7-4.9c2.4,0,4.4,0.7,6.1,2.1l-1.9,2.7c-1.4-1-2.9-1.6-4.3-1.6c-1.4,0-2.1,0.6-2.1,1.4v0c0,1.1,0.7,1.4,3.5,2.1
		c3.3,0.9,5.2,2.1,5.2,4.9v0c0,3.2-2.5,5.1-6,5.1C705.2,85.9,702.7,85,700.8,83.3z"/>
	<path class="st1" d="M716.1,81.9h3.8v3.7h-3.8V81.9z"/>
</g>
</svg>
